{"title":"Inglorious Basterds (2009) [Special Edition] 1080p {inyd}","uid":9483022,"size":10339360269,"categoryP":"video","categoryS":"hd___movies","magnet":"?xt=urn:btih:5fae2a82bb05f9cc333849ee5a7803c7ac27f8dc&amp;dn=Inglorious+Basterds+%282009%29+%5BSpecial+Edition%5D+1080p+%7Binyd%7D&amp;tr=udp%3A%2F%2Ftracker.openbittorrent.com%3A80&amp;tr=udp%3A%2F%2Fopen.demonii.com%3A1337&amp;tr=udp%3A%2F%2Ftracker.coppersurfer.tk%3A6969&amp;tr=udp%3A%2F%2Fexodus.desync.com%3A6969","seeders":7,"leechers":2,"uploader":"imPROvise","files":-1,"time":1389837138,"description":"General\nName                                     : Iglorious Basterds (2009) (Special    Edition)\nFormat                                   : MPEG-4\nFormat profile                           : Base Media\nCodec ID                                 : isom\nFile size                                : 9.63 GiB\nDuration                                 : 2h 32mn\nOverall bit rate mode                    : Variable\nOverall bit rate                         : 9 011 Kbps\nWriting application                      : Lavf54.59.106\n\nVideo\nID                                       : 1\nFormat                                   : MPEG-4 Visual\nFormat profile                           : Simple@L1\nFormat settings, BVOP                    : No\nFormat settings, QPel                    : No\nFormat settings, GMC                     : No warppoints\nFormat settings, Matrix                  : Default (H.263)\nCodec ID                                 : 20\nDuration                                 : 2h 32mn\nBit rate mode                            : Variable\nBit rate                                 : 8 877 Kbps\nMaximum bit rate                         : 10 000 Kbps\nWidth                                    : 1 920 pixels\nHeight                                   : 1 080 pixels\nDisplay aspect ratio                     : 16:9\nFrame rate mode                          : Constant\nFrame rate                               : 23.976 fps\nColor space                              : YUV\nChroma subsampling                       : 4:2:0\nBit depth                                : 8 bits\nScan type                                : Progressive\nCompression mode                         : Lossy\nBits/(Pixel*Frame)                       : 0.179\nStream size                              : 9.49 GiB (99%)\nWriting library                          : Lavc54.86.100\n\nAudio\nID                                       : 2\nFormat                                   : AC-3\nFormat/Info                              : Audio Coding 3\nMode extension                           : CM (complete main)\nFormat settings, Endianness              : Big\nCodec ID                                 : ac-3\nDuration                                 : 2h 32mn\nBit rate mode                            : Constant\nBit rate                                 : 128 Kbps\nChannel(s)                               : 6 channels\nChannel positions                        : Front: L C R, Side: L R, LFE\nSampling rate                            : 44.1 KHz\nBit depth                                : 16 bits\nCompression mode                         : Lossy\nStream size                              : 140 MiB (1%)\n\nScreens: &lt;a href=&quot;\nhttp://postimg.org/image/vhjdybj1v/&quot; rel=&quot;nofollow&quot; target=&quot;_NEW&quot;&gt;\nhttp://postimg.org/image/vhjdybj1v/&lt;/a&gt; &lt;a href=&quot;\nhttp://postimg.org/image/wxuyfvrjz/&quot; rel=&quot;nofollow&quot; target=&quot;_NEW&quot;&gt;\nhttp://postimg.org/image/wxuyfvrjz/&lt;/a&gt; &lt;a href=&quot;\nhttp://postimg.org/image/ghk773q9v/&quot; rel=&quot;nofollow&quot; target=&quot;_NEW&quot;&gt;\nhttp://postimg.org/image/ghk773q9v/&lt;/a&gt; &lt;a href=&quot;\nhttp://postimg.org/image/t5e2fy61f/&quot; rel=&quot;nofollow&quot; target=&quot;_NEW&quot;&gt;\nhttp://postimg.org/image/t5e2fy61f/&lt;/a&gt; &lt;a href=&quot;\nhttp://postimg.org/image/jxgwuecw3/&quot; rel=&quot;nofollow&quot; target=&quot;_NEW&quot;&gt;\nhttp://postimg.org/image/jxgwuecw3/&lt;/a&gt;\n\nEnjoy and Please help seed as much as possible for others!!! - inotyourdaddy {inyd}\n\nJoin me on SuprBay: The PirateBay Forum - Report any fake torrents, torrents with passwords, malware, viruses, or spam comments. Have any site issues that need attended to ask on the forum. Request for any video, music, software, or other can be made on the forum. Don't forget to hit my rep. button :) -   &lt;a href=&quot; https://forum.suprbay.org/member.php?action=register&amp;referrer=251&quot; rel=&quot;nofollow&quot; target=&quot;_NEW&quot;&gt; https://forum.suprbay.org/member.php?action=register&amp;referrer=251&lt;/a&gt;\n\n","torrent":{"xt":"urn:btih:5fae2a82bb05f9cc333849ee5a7803c7ac27f8dc","amp;dn":"Inglorious+Basterds+%282009%29+%5BSpecial+Edition%5D+1080p+%7Binyd%7D","amp;tr":["udp%3A%2F%2Ftracker.openbittorrent.com%3A80","udp%3A%2F%2Fopen.demonii.com%3A1337","udp%3A%2F%2Ftracker.coppersurfer.tk%3A6969","udp%3A%2F%2Fexodus.desync.com%3A6969"],"infoHash":"5fae2a82bb05f9cc333849ee5a7803c7ac27f8dc","infoHashBuffer":{"type":"Buffer","data":[95,174,42,130,187,5,249,204,51,56,73,238,90,120,3,199,172,39,248,220]},"announce":[],"urlList":[]}}